<svg width="662" height="97" viewBox="0 0 662 97" fill="none" xmlns="http://www.w3.org/2000/svg">
<path d="M30.2102 75.7895C26.5712 75.7895 23.1382 75.1049 20.0486 73.7356C16.8902 72.3663 14.2812 70.4493 12.496 67.7792L13.8692 64.7668V74.6256H0V0H14.8305V31.0141L12.496 28.0702C14.2812 25.3316 16.6843 23.2777 19.7739 21.7715C22.795 20.2653 26.2966 19.5807 30.2788 19.5807C35.4283 19.5807 40.0285 20.8815 44.2854 23.3462C48.4049 25.8793 51.7006 29.1656 54.1723 33.4104C56.5754 37.6551 57.8113 42.3791 57.8113 47.6509C57.8113 52.8541 56.5754 57.5781 54.1723 61.8229C51.7693 66.1361 48.4736 69.5593 44.354 72.024C40.1658 74.5572 35.497 75.7895 30.2102 75.7895ZM28.425 62.5075C31.1714 62.5075 33.6432 61.8914 35.7029 60.659C37.8314 59.3582 39.4792 57.6466 40.7151 55.4557C41.8823 53.2649 42.5002 50.6633 42.5002 47.7878C42.5002 44.9123 41.8823 42.3791 40.7151 40.1198C39.5479 37.929 37.9 36.2174 35.7029 34.9166C33.6432 33.6842 31.1714 33.0681 28.425 33.0681C25.816 33.0681 23.4129 33.6842 21.3531 34.9166C19.2933 36.1489 17.7142 37.929 16.5469 40.1198C15.3797 42.4476 14.8305 44.9123 14.8305 47.7878C14.8305 50.6633 15.3797 53.2649 16.5469 55.4557C17.7142 57.7151 19.362 59.4267 21.3531 60.659C23.4815 61.8229 25.816 62.5075 28.425 62.5075Z" fill="#373327"/>
<path d="M80.8123 75.7896C76.9673 75.7896 73.603 75.1734 70.7193 73.941C67.9043 72.6402 65.7072 70.9286 64.2653 68.5324C62.6862 66.2046 61.9309 63.4661 61.9309 60.1798C61.9309 57.1674 62.6175 54.4973 64.0594 52.1695C65.4325 49.8417 67.4923 47.9248 70.376 46.3501C73.1911 44.7754 76.83 43.6115 81.0869 42.9954L97.5652 40.3253V51.1426L83.7646 53.6073C81.7048 54.018 80.057 54.7027 78.9585 55.6612C77.8599 56.5512 77.3106 57.9889 77.3106 59.7005C77.3106 61.3437 77.9286 62.6445 79.1644 63.603C80.4003 64.493 81.9795 64.9723 83.7646 64.9723C86.2364 64.9723 88.4335 64.493 90.2186 63.3976C92.0724 62.3706 93.5143 60.9329 94.5442 59.1528C95.5054 57.3043 96.1233 55.3189 96.1233 53.1965V39.1614C96.1233 37.1075 95.2994 35.3959 93.7203 34.0266C92.0724 32.6573 89.8753 31.9727 87.0603 31.9727C84.5199 31.9727 82.1168 32.7258 80.1257 34.095C78.1345 35.6013 76.6927 37.5182 75.7315 39.846L63.922 34.232C64.9519 31.2196 66.7371 28.6179 68.9342 26.4956C71.2686 24.2363 74.015 22.5931 77.242 21.4292C80.469 20.2653 84.0393 19.6492 87.8155 19.6492C92.3471 19.6492 96.398 20.4707 99.8996 22.1139C103.401 23.757 106.079 26.0163 108.001 28.9603C109.993 31.9042 110.954 35.2589 110.954 39.1614V74.6257H97.1532V65.9308L100.449 65.3146C98.9384 67.7108 97.1532 69.6963 95.2308 71.2709C93.377 72.7771 91.1799 73.8726 88.7768 74.6941C86.3737 75.4472 83.696 75.7896 80.8123 75.7896Z" fill="#373327"/>
<path d="M127.707 96.4656C126.127 96.4656 124.617 96.3286 123.175 96.1232C121.665 95.8494 120.36 95.4386 119.262 94.8224V82.7043C120.154 82.9782 121.253 83.1836 122.489 83.389C123.793 83.5259 124.892 83.7313 125.99 83.7313C128.874 83.7313 131.002 83.0466 132.238 81.6089C133.474 80.2396 134.573 78.665 135.328 76.9534L138.967 68.5323L138.761 80.7873L115.005 20.7445H130.865L146.588 63.466H140.615L156.406 20.7445H172.335L149.128 79.6234C147.755 83.389 145.901 86.5383 143.842 89.003C141.782 91.5362 139.31 93.3847 136.632 94.6855C134.023 95.9179 131.071 96.4656 127.707 96.4656Z" fill="#373327"/>
<path d="M191.148 75.7896C187.234 75.7896 183.939 75.1734 181.055 73.941C178.24 72.6402 176.043 70.9286 174.532 68.5324C173.022 66.2046 172.267 63.4661 172.267 60.1798C172.267 57.1674 172.953 54.4973 174.326 52.1695C175.768 49.8417 177.897 47.9248 180.712 46.3501C183.596 44.7754 187.166 43.6115 191.491 42.9954L207.97 40.3253V51.1426L194.1 53.6073C192.041 54.018 190.393 54.7027 189.294 55.6612C188.196 56.5512 187.646 57.9889 187.646 59.7005C187.646 61.3437 188.264 62.6445 189.5 63.603C190.736 64.493 192.315 64.9723 194.1 64.9723C196.572 64.9723 198.701 64.493 200.554 63.3976C202.408 62.3706 203.85 60.9329 204.88 59.1528C205.841 57.3043 206.39 55.3189 206.39 53.1965V39.1614C206.39 37.1075 205.567 35.3959 203.987 34.0266C202.408 32.6573 200.211 31.9727 197.396 31.9727C194.787 31.9727 192.453 32.7258 190.461 34.095C188.47 35.6013 187.028 37.5182 186.067 39.846L174.189 34.232C175.288 31.2196 176.936 28.6179 179.27 26.4956C181.536 24.2363 184.282 22.5931 187.509 21.4292C190.736 20.2653 194.238 19.6492 198.083 19.6492C202.614 19.6492 206.665 20.4707 210.167 22.1139C213.737 23.757 216.415 26.0163 218.337 28.9603C220.328 31.9042 221.221 35.2589 221.221 39.1614V74.6257H207.42V65.9308L210.785 65.3146C209.205 67.7108 207.489 69.6963 205.567 71.2709C203.713 72.7771 201.516 73.8726 199.181 74.6941C196.709 75.4472 194.032 75.7896 191.148 75.7896Z" fill="#373327"/>
<path d="M229.666 74.6256V20.7446H243.535V33.7527L242.505 31.9042C243.673 27.3856 245.664 24.2362 248.41 22.6616C251.088 21.0869 254.383 20.2653 258.16 20.2653H261.318V33.0681H256.649C253.01 33.0681 250.058 34.1635 247.792 36.3543C245.595 38.6136 244.497 41.6945 244.497 45.7339V74.6941H229.666V74.6256Z" fill="#373327"/>
<path d="M292.215 75.7896C286.928 75.7896 282.053 74.5572 277.728 72.161C273.334 69.6963 269.832 66.41 267.223 62.0968C264.682 57.9205 263.378 53.128 263.378 47.6509C263.378 42.2423 264.682 37.3813 267.223 33.205C269.832 29.0287 273.334 25.7425 277.728 23.2778C282.053 20.8815 286.928 19.6492 292.215 19.6492C297.57 19.6492 302.377 20.8815 306.771 23.2778C311.096 25.7425 314.529 29.0287 317.138 33.205C319.679 37.4498 320.983 42.3107 320.983 47.6509C320.983 53.128 319.679 57.9205 317.138 62.0968C314.529 66.3415 311.096 69.6963 306.771 72.161C302.377 74.5572 297.57 75.7896 292.215 75.7896ZM292.215 62.5076C294.961 62.5076 297.296 61.8914 299.355 60.659C301.347 59.3582 302.926 57.6466 304.093 55.4558C305.192 53.2649 305.878 50.6633 305.878 47.7878C305.878 44.9123 305.26 42.3792 304.093 40.1199C302.994 37.929 301.347 36.2174 299.355 34.9166C297.296 33.6843 294.961 33.0681 292.215 33.0681C289.606 33.0681 287.203 33.6843 285.074 34.9166C283.015 36.2859 281.435 37.929 280.337 40.1199C279.17 42.3792 278.552 44.8439 278.552 47.7878C278.552 50.7318 279.17 53.2649 280.337 55.4558C281.435 57.7151 283.015 59.4267 285.074 60.659C287.203 61.8229 289.537 62.5076 292.215 62.5076Z" fill="#373327"/>
<path d="M354.146 75.7896C348.859 75.7896 343.984 74.5572 339.59 72.161C335.333 69.6963 331.763 66.41 329.154 62.0968C326.613 57.9205 325.309 53.128 325.309 47.6509C325.309 42.2423 326.613 37.3813 329.154 33.205C331.763 29.0287 335.333 25.7425 339.59 23.2778C343.984 20.8815 348.859 19.6492 354.146 19.6492C359.57 19.6492 364.376 20.8815 368.633 23.2778C373.027 25.7425 376.529 29.0287 379.069 33.205C381.678 37.4498 382.983 42.3107 382.983 47.6509C382.983 53.128 381.678 57.9205 379.069 62.0968C376.529 66.3415 373.027 69.6963 368.633 72.161C364.376 74.5572 359.57 75.7896 354.146 75.7896ZM354.146 62.5076C356.892 62.5076 359.226 61.8914 361.286 60.659C363.277 59.3582 364.857 57.6466 366.024 55.4558C367.122 53.2649 367.74 50.6633 367.74 47.7878C367.74 44.9123 367.122 42.3792 366.024 40.1199C364.925 37.929 363.277 36.2174 361.286 34.9166C359.226 33.6843 356.892 33.0681 354.146 33.0681C351.537 33.0681 349.133 33.6843 347.074 34.9166C345.014 36.2859 343.435 37.929 342.336 40.1199C341.169 42.3792 340.62 44.8439 340.62 47.7878C340.62 50.7318 341.169 53.2649 342.336 55.4558C343.435 57.7151 345.083 59.4267 347.074 60.659C349.133 61.8229 351.537 62.5076 354.146 62.5076Z" fill="#373327"/>
<path d="M409.691 75.7895C405.022 75.7895 400.971 74.6941 397.401 72.4348C393.831 70.107 391.222 66.9577 389.437 62.9868L393.625 61.1383C395.341 64.4245 397.607 66.9577 400.422 68.8062C403.169 70.6547 406.258 71.5448 409.76 71.5448C413.399 71.5448 416.488 70.6547 419.098 68.8062C421.638 66.9577 422.874 64.5615 422.874 61.5491C422.874 59.9744 422.53 58.5366 421.775 57.3043C421.089 56.0719 419.99 54.9765 418.548 54.018C417.175 52.9911 415.459 52.3064 413.399 51.7587L404.748 49.3625C400.491 48.2671 397.332 46.5555 395.273 44.2277C393.213 41.8999 392.114 39.0244 392.114 35.6697C392.114 32.9312 392.801 30.5349 394.174 28.3441C395.616 26.2217 397.538 24.5786 400.01 23.3462C402.413 22.1823 405.091 21.4977 408.112 21.4977C412.3 21.4977 416.145 22.5931 419.578 24.7155C423.08 26.9063 425.483 29.7133 426.787 33.1365L422.462 35.122C421.089 32.178 419.098 29.9187 416.488 28.2071C414.017 26.564 411.202 25.7424 408.112 25.7424C404.816 25.7424 402.139 26.6325 399.873 28.5495C397.744 30.398 396.646 32.7258 396.646 35.4643C396.646 36.9705 396.989 38.2713 397.676 39.4352C398.294 40.5306 399.255 41.5576 400.628 42.3792C401.933 43.2007 403.512 43.9538 405.434 44.5015L414.154 46.9662C418.411 48.1301 421.638 49.9787 424.041 52.4434C426.375 54.9081 427.543 57.852 427.543 61.2752C427.543 64.0822 426.719 66.4785 425.14 68.7378C423.56 70.8601 421.432 72.5717 418.754 73.8726C416.008 75.1734 412.987 75.7895 409.691 75.7895Z" fill="#373327"/>
<path d="M440.519 94.3433V22.7301H444.982V37.4498L444.158 35.8067C446.081 31.4935 448.964 28.1388 452.947 25.4687C456.792 22.9355 461.255 21.5662 466.267 21.5662C471.141 21.5662 475.536 22.7301 479.312 25.1263C483.226 27.4541 486.247 30.7404 488.444 34.7798C490.641 38.956 491.808 43.5431 491.808 48.6779C491.808 53.7442 490.641 58.3998 488.444 62.4392C486.178 66.4785 483.226 69.7648 479.312 72.161C475.536 74.5573 471.141 75.7212 466.267 75.7212C461.255 75.7212 456.792 74.4203 452.947 71.8187C448.964 69.2855 446.081 65.7939 444.158 61.5491L444.982 59.906V94.2749H440.519V94.3433ZM466.335 71.3395C470.386 71.3395 473.956 70.381 477.046 68.3955C480.136 66.4101 482.608 63.6715 484.461 60.3168C486.247 56.8251 487.139 53.0596 487.139 48.6779C487.139 44.3647 486.247 40.4623 484.461 37.0391C482.608 33.6159 480.136 30.9458 477.046 28.9603C473.956 26.9749 470.318 25.9479 466.335 25.9479C462.353 25.9479 458.783 26.9749 455.624 28.9603C452.397 30.9458 449.857 33.6159 448.072 37.0391C446.218 40.3938 445.326 44.2278 445.326 48.6095C445.326 52.9227 446.218 56.8251 448.072 60.3168C449.926 63.6715 452.397 66.4101 455.624 68.3955C458.783 70.381 462.353 71.3395 466.335 71.3395Z" fill="#373327"/>
<path d="M503.617 79.0759V74.6257H543.165V79.0759H503.617Z" fill="#FECB19"/>
<path d="M580.791 75.7895C575.985 75.7895 571.659 74.6256 567.745 72.2293C563.832 69.9016 560.673 66.6838 558.339 62.5759C556.073 58.4681 554.906 53.8125 554.906 48.7462C554.906 43.543 556.073 38.8874 558.339 34.848C560.673 30.8087 563.832 27.5224 567.745 25.1946C571.659 22.7984 575.985 21.6345 580.791 21.6345C584.018 21.6345 587.039 22.2507 589.716 23.2092C592.463 24.3046 594.866 25.7424 596.926 27.5224C598.985 29.3709 600.633 31.4933 601.8 33.8896L598.024 35.9435C596.17 32.6572 593.767 30.1925 590.815 28.4124C587.863 26.7008 584.498 25.8108 580.722 25.8108C576.671 25.8108 573.032 26.7693 569.874 28.6863C566.715 30.6033 564.106 33.2049 562.184 36.6966C560.261 40.1198 559.369 44.1591 559.369 48.7462C559.369 53.3333 560.261 57.3727 562.184 60.7959C564.106 64.2191 566.715 66.9576 569.874 68.8061C573.101 70.6547 576.74 71.6816 580.722 71.6816C584.498 71.6816 587.863 70.7231 590.815 69.0115C593.767 67.2315 596.17 64.6983 598.024 61.549L601.8 63.466C600.633 65.7937 598.985 67.8476 596.926 69.7646C594.866 71.6132 592.394 73.0509 589.716 74.2148C586.97 75.2417 583.949 75.7895 580.791 75.7895Z" fill="#373327"/>
<path d="M638.945 75.7896C634.002 75.7896 629.539 74.6257 625.625 72.2295C621.712 69.8333 618.485 66.547 616.219 62.4392C613.884 58.3998 612.717 53.7443 612.717 48.6779C612.717 43.5431 613.816 38.956 616.013 34.7798C618.279 30.7404 621.231 27.4541 625.145 25.1263C628.921 22.7301 633.178 21.5662 637.915 21.5662C641.28 21.5662 644.438 22.1824 647.322 23.4832C650.205 24.7156 652.677 26.4956 654.806 28.6865C657.003 31.0142 658.65 33.5474 659.818 36.6283C660.985 39.5722 661.603 42.8585 661.603 46.2817C661.603 46.8979 661.534 47.5825 661.534 48.1302C661.466 48.7464 661.397 49.3626 661.26 50.1157H614.983V46.1448H658.719L657.071 47.4456C657.209 43.3377 656.453 39.7092 654.943 36.4229C653.226 33.1366 650.961 30.6035 648.008 28.6865C645.056 26.701 641.692 25.7425 637.915 25.7425C634.07 25.7425 630.5 26.7695 627.342 28.7549C624.321 30.8088 621.712 33.5474 619.927 37.0391C618.073 40.4623 617.111 44.3647 617.111 48.6779C617.111 53.0596 618.004 56.8936 619.927 60.3852C621.849 63.9454 624.458 66.6155 627.685 68.6009C630.981 70.6548 634.688 71.6133 638.808 71.6133C642.516 71.6133 645.948 70.6548 648.901 68.9432C651.922 67.1632 654.394 64.63 656.247 61.4807L660.024 63.3977C658.65 65.9308 657.003 68.1217 654.806 69.9702C652.608 71.8187 650.205 73.2565 647.39 74.2149C644.987 75.3104 642.035 75.7896 638.945 75.7896Z" fill="#373327"/>
</svg>
